<?xml version="1.0" standalone="no"?>
<!DOCTYPE svg PUBLIC "-//W3C//DTD SVG 20010904//EN"
 "http://www.w3.org/TR/2001/REC-SVG-20010904/DTD/svg10.dtd">
<svg version="1.0" xmlns="http://www.w3.org/2000/svg"
 width="1776.000000pt" height="616.000000pt" viewBox="0 0 1776.000000 616.000000"
 preserveAspectRatio="xMidYMid meet">
<metadata>
Created by potrace 1.16, written by Peter Selinger 2001-2019
</metadata>
<g transform="translate(0.000000,616.000000) scale(0.100000,-0.100000)"
fill="#fff" stroke="none">
<path d="M10710 5750 l0 -410 410 0 410 0 0 410 0 410 -410 0 -410 0 0 -410z"/>
<path d="M17030 6035 c0 -24 3 -25 60 -25 l60 0 0 -175 0 -175 30 0 30 0 0
175 0 175 60 0 c57 0 60 1 60 25 l0 25 -150 0 -150 0 0 -25z"/>
<path d="M17380 6049 c0 -23 -20 -307 -25 -346 -4 -42 -4 -43 24 -43 25 0 29
4 35 38 3 20 6 58 6 83 0 25 3 74 6 107 l7 62 46 -143 c43 -131 49 -142 73
-145 29 -3 27 -8 97 192 l38 108 6 -98 c4 -55 7 -123 7 -151 0 -53 0 -53 31
-53 l32 0 -7 138 c-4 75 -9 165 -13 200 l-6 62 -36 0 -36 0 -54 -149 -53 -150
-51 150 -50 149 -39 0 c-21 0 -38 -5 -38 -11z"/>
<path d="M525 5703 c-203 -43 -374 -180 -460 -368 -45 -98 -60 -165 -60 -280
0 -121 15 -184 65 -290 67 -139 166 -238 305 -305 107 -51 170 -65 295 -64
112 0 158 10 258 51 l64 26 315 -315 315 -315 -22 -42 c-51 -101 -76 -296 -51
-404 l9 -38 -191 -128 c-106 -70 -197 -130 -202 -133 -6 -4 -33 9 -60 27 -71
49 -187 92 -284 105 -309 42 -610 -140 -717 -434 -59 -164 -49 -366 26 -518
68 -137 174 -244 304 -309 108 -53 204 -72 331 -66 281 13 509 183 602 449 22
62 26 91 27 198 1 69 -2 139 -6 155 -6 30 -4 32 194 163 l200 133 37 -24 c155
-103 356 -142 524 -103 l58 13 98 -144 98 -145 -53 -72 c-101 -133 -141 -271
-131 -450 9 -175 68 -306 192 -431 132 -131 259 -186 450 -193 144 -5 209 8
335 69 69 34 101 58 170 128 137 138 194 276 194 471 0 218 -84 394 -252 529
-123 99 -254 143 -422 144 l-106 0 -109 165 c-61 90 -112 169 -114 174 -2 5
11 36 28 68 56 106 72 165 78 292 l6 117 164 55 165 55 26 -32 c79 -96 193
-173 317 -214 112 -36 275 -38 385 -4 120 37 187 77 280 171 136 136 193 273
193 465 0 192 -57 329 -193 465 -139 140 -275 195 -475 193 -90 0 -125 -5
-190 -26 -263 -85 -430 -296 -462 -582 l-8 -68 -185 -62 -185 -62 -63 57 c-72
67 -176 120 -279 145 -97 23 -259 17 -357 -15 l-69 -22 -327 327 -328 328 13
31 c21 49 45 180 45 241 0 194 -104 408 -253 521 -162 123 -360 169 -552 127z
m260 -158 c179 -47 323 -189 370 -366 17 -63 19 -175 4 -239 -40 -174 -192
-328 -370 -375 -263 -70 -550 106 -614 376 -28 120 -16 217 42 336 102 209
348 325 568 268z m1185 -1726 c-15 -28 -29 -39 -50 -39 -8 0 -191 176 -407
392 l-392 392 31 39 31 39 400 -400 c383 -384 399 -400 387 -423z m1885 776
c221 -58 385 -267 385 -490 0 -319 -318 -569 -623 -490 -230 60 -387 259 -387
490 0 134 49 253 145 351 126 128 312 182 480 139z m-1552 -580 c282 -60 463
-357 383 -630 -30 -102 -32 -103 -72 -57 -94 110 -273 90 -343 -38 -40 -71
-31 -170 21 -242 7 -9 9 -20 6 -24 -14 -13 -174 -7 -233 10 -241 70 -399 307
-365 548 6 38 17 85 25 105 l15 36 33 -30 c54 -51 92 -66 163 -61 120 7 189
85 189 210 0 59 -4 72 -33 113 -18 26 -32 49 -30 50 6 7 103 23 138 24 19 0
65 -6 103 -14z m803 -120 l11 -34 -149 -50 -148 -50 -16 31 c-8 16 -14 32 -11
34 4 4 284 101 297 103 3 1 10 -15 16 -34z m-449 -909 l161 -243 -46 -22 c-37
-18 -47 -20 -57 -9 -7 7 -81 115 -165 240 -123 183 -151 231 -146 251 7 30 44
48 71 35 11 -5 93 -119 182 -252z m-989 129 c-13 -10 -338 -225 -341 -225 -3
0 -17 19 -32 41 -22 33 -24 44 -14 50 8 4 86 57 174 117 l159 109 29 -44 c15
-25 27 -46 25 -48z m-842 -46 c76 -14 186 -67 246 -119 185 -161 225 -445 92
-648 -53 -81 -120 -139 -213 -185 l-84 -42 -126 0 c-145 1 -191 15 -296 90
-218 156 -274 454 -127 681 70 108 191 192 315 219 78 17 118 18 193 4z m2363
-444 c320 -76 481 -423 335 -724 -57 -116 -203 -230 -334 -260 -266 -61 -541
112 -605 380 -41 174 7 333 139 465 133 132 292 180 465 139z"/>
<path d="M16143 5597 l-403 -102 0 -1490 c0 -1025 3 -1518 11 -1580 15 -125
51 -243 108 -360 168 -342 484 -568 856 -614 133 -16 889 -15 883 2 -3 6 -49
191 -104 409 l-98 397 -311 3 -310 3 -53 29 c-60 33 -101 76 -134 139 -23 42
-23 43 -26 605 l-3 562 336 0 c261 0 335 3 335 13 0 6 -45 188 -98 402 l-98
390 -237 3 -237 2 0 645 c0 355 -3 645 -7 644 -5 0 -189 -47 -410 -102z"/>
<path d="M6130 4914 c-331 -39 -535 -109 -765 -262 -403 -267 -672 -718 -739
-1240 -53 -409 16 -795 199 -1127 257 -465 686 -783 1208 -897 90 -20 131 -22
357 -23 225 0 268 3 366 22 92 19 290 77 303 89 3 3 -299 764 -304 764 -1 0
-22 -7 -46 -16 -153 -54 -387 -65 -544 -25 -177 45 -326 131 -461 265 -180
179 -262 368 -271 625 -8 204 21 339 107 498 211 392 656 589 1090 483 323
-79 594 -348 693 -689 21 -75 22 -85 25 -888 2 -766 2 -817 -16 -905 -72 -350
-362 -654 -707 -740 -74 -18 -116 -22 -240 -22 -175 1 -256 18 -393 85 -46 22
-87 39 -91 37 -5 -2 -140 -132 -301 -290 l-292 -286 61 -46 c378 -278 906
-387 1389 -286 331 69 679 262 913 507 209 219 369 500 439 774 57 221 53 98
57 1867 l4 1632 -410 0 -410 0 -3 -125 -3 -124 -85 55 c-194 127 -444 228
-655 264 -113 19 -395 34 -475 24z"/>
<path d="M10205 4913 c-87 -7 -234 -37 -319 -64 -114 -37 -317 -142 -423 -219
l-83 -59 0 124 0 125 -410 0 -410 0 0 -1690 0 -1690 410 0 410 0 0 874 c0 575
4 901 11 953 48 347 294 655 617 773 88 32 227 60 298 60 l44 0 0 410 0 410
-52 -2 c-29 -1 -71 -3 -93 -5z"/>
<path d="M13420 4895 c-207 -29 -364 -78 -558 -176 -182 -92 -301 -178 -452
-329 -145 -145 -233 -264 -324 -440 -147 -286 -204 -544 -193 -885 8 -267 59
-479 171 -709 244 -501 688 -846 1247 -968 92 -20 132 -22 354 -23 201 0 267
3 337 18 573 116 1031 471 1277 987 118 249 171 485 171 767 1 902 -679 1664
-1572 1762 -127 14 -339 12 -458 -4z m515 -839 c273 -82 514 -293 620 -545 60
-141 70 -198 69 -386 0 -155 -3 -178 -27 -258 -154 -504 -663 -791 -1172 -662
-182 46 -314 124 -448 264 -184 193 -268 398 -268 657 0 124 11 206 43 304
102 316 383 570 708 641 130 29 353 21 475 -15z"/>
<path d="M10710 3130 l0 -1690 410 0 410 0 0 1690 0 1690 -410 0 -410 0 0
-1690z"/>
</g>
</svg>
